<?xml version="1.0" encoding="utf-8"?>
<!-- Generator: Adobe Illustrator 16.0.0, SVG Export Plug-In . SVG Version: 6.00 Build 0)  -->
<!DOCTYPE svg PUBLIC "-//W3C//DTD SVG 1.1//EN" "http://www.w3.org/Graphics/SVG/1.1/DTD/svg11.dtd">
<svg version="1.1" id="Layer_1" xmlns="http://www.w3.org/2000/svg" xmlns:xlink="http://www.w3.org/1999/xlink" x="0px" y="0px"
	 width="392px" height="116px" viewBox="0 0 392 116" enable-background="new 0 0 392 116" xml:space="preserve">
<g>
	<g>
		<g>
			<path fill="#C58D8C" d="M84.826,72.471c11.181-10.724,53.5-59.508,50.465-65.746c0,0-51.918,55.308-56.969,60.613
				c-5.04,5.295-8.203,11.634-18.819,12.89l0,0c-4.461,0.547-9.15,3.21-12.594,7.654c-5.855,7.548-5.893,17.32-0.083,21.826
				c5.813,4.498,15.263,2.03,21.117-5.52c3.182-4.105,4.634-8.864,4.367-13.072C72.31,91.111,74.308,82.563,84.826,72.471z
				 M65.718,102.46c-4.62,5.957-12.076,7.907-16.654,4.358c-4.579-3.554-4.553-11.262,0.064-17.213
				c4.615-5.961,12.076-7.908,16.656-4.353C70.359,88.801,70.334,96.505,65.718,102.46z"/>
			<path fill="#C58D8C" d="M146.116,107.45c-3.515,2.003-7.847,1.173-11.012-1.157c0.113-0.162,0.219-0.33,0.321-0.497
				c3.404-5.096,2.501-13.146-2.636-19.489c-3.537-4.377-8.281-6.947-12.754-7.392c-10.632-1.039-14.869-8.414-20.027-13.608
				C94.85,60.107,42.493,6.725,42.493,6.725c-2.903,6.299,40.663,54.472,52.069,64.96c10.724,9.866,12.893,18.373,12.893,18.379
				c-0.169,4.213,1.377,8.937,4.646,12.972c5.354,6.623,13.468,9.13,19.22,6.343c0.452-0.225,0.858-0.456,1.235-0.696
				c4.385,3.494,10.455,4.514,15.433,1.674C149.927,109.253,148.045,106.349,146.116,107.45z M114.286,101.27
				c-4.743-5.856-4.929-13.564-0.425-17.208c4.511-3.645,12.007-1.852,16.746,4.008c4.734,5.86,4.925,13.563,0.416,17.211
				C126.519,108.922,119.028,107.13,114.286,101.27z"/>
			<path fill="#C58D8C" d="M87.667,60.013c0.449-1.505,2.032-2.358,3.538-1.911c1.502,0.45,2.358,2.031,1.908,3.538
				c-0.45,1.504-2.033,2.359-3.537,1.912C88.071,63.099,87.22,61.519,87.667,60.013z"/>
		</g>
	</g>
	<g>
		<g>
			<path fill="#C58D8C" d="M131.391,58.649c6.811,4.835,14.221-6.043,6.391-10.759c-8.844-5.322-17.106,7.508-13.447,15.093
				c4.598,9.531,14.5,6.846,21.537,1.575c5.903-4.426,8.891-10.748,16.698-12.679c6.749-1.668,14.617,4.315,11.021,11.451
				c-1.602,3.183-5.203,3.465-8.024,2.047c-4.442-2.241-1.095-7.212,3.089-6.448c1.566,0.287,2.294-2.104,0.71-2.393
				c-9.787-1.785-11.333,11.531-1.525,12.195c4.997,0.343,8.366-3.204,9.2-7.968c1.024-5.852-4.271-10.02-9.305-11.332
				c-12.427-3.235-18.889,11.585-28.302,16.184c-7.15,3.492-15.17-0.912-13.437-9.615c0.708-3.557,4.196-6.183,7.674-6.494
				c8.302-0.741,4.514,10.913-0.988,7.008C131.372,55.584,130.082,57.723,131.391,58.649L131.391,58.649z"/>
		</g>
		<g>
			<path fill="#C58D8C" d="M49.692,58.649c-6.811,4.835-14.22-6.043-6.39-10.759c8.844-5.322,17.105,7.508,13.447,15.093
				c-4.599,9.531-14.501,6.846-21.538,1.575c-5.903-4.426-8.891-10.748-16.699-12.679c-6.748-1.668-14.616,4.315-11.02,11.451
				c1.602,3.183,5.202,3.465,8.024,2.047c4.442-2.241,1.094-7.212-3.089-6.448c-1.567,0.287-2.295-2.104-0.71-2.393
				c9.787-1.785,11.333,11.531,1.525,12.195c-4.996,0.343-8.366-3.204-9.2-7.968c-1.023-5.852,4.271-10.02,9.305-11.332
				c12.427-3.235,18.889,11.585,28.302,16.184c7.149,3.492,15.17-0.912,13.437-9.615c-0.708-3.557-4.196-6.183-7.674-6.494
				c-8.303-0.741-4.515,10.913,0.988,7.008C49.711,55.584,51.001,57.723,49.692,58.649L49.692,58.649z"/>
		</g>
	</g>
</g>
<g>
	<g>
		<text transform="matrix(1 0 0 1 178.748 63.9053)" fill="#141415" font-family="'Century'" font-size="39.057">Beauty Life</text>
	</g>
	<text transform="matrix(1 0 0 1 243.7012 94.3164)" fill="#666766" font-family="'Century'" font-size="23.5453">SALON</text>
</g>
</svg>
